<?xml version="1.0" encoding="UTF-8" standalone="no"?>
<!-- Created with Inkscape (http://www.inkscape.org/) -->
<svg
   xmlns:dc="http://purl.org/dc/elements/1.1/"
   xmlns:cc="http://creativecommons.org/ns#"
   xmlns:rdf="http://www.w3.org/1999/02/22-rdf-syntax-ns#"
   xmlns:svg="http://www.w3.org/2000/svg"
   xmlns="http://www.w3.org/2000/svg"
   xmlns:xlink="http://www.w3.org/1999/xlink"
   xmlns:sodipodi="http://sodipodi.sourceforge.net/DTD/sodipodi-0.dtd"
   xmlns:inkscape="http://www.inkscape.org/namespaces/inkscape"
   id="svg2178"
   sodipodi:version="0.32"
   inkscape:version="0.46+devel"
   width="146"
   height="146"
   version="1.0"
   sodipodi:docname="idelogo.svg"
   inkscape:output_extension="org.inkscape.output.svg.inkscape"
   inkscape:export-filename="D:\dev\c\tools\wxide\res\estrela.png"
   inkscape:export-xdpi="36.990002"
   inkscape:export-ydpi="36.990002">
  <metadata
     id="metadata2183">
    <rdf:RDF>
      <cc:Work
         rdf:about="">
        <dc:format>image/svg+xml</dc:format>
        <dc:type
           rdf:resource="http://purl.org/dc/dcmitype/StillImage" />
      </cc:Work>
    </rdf:RDF>
  </metadata>
  <defs
     id="defs2181">
    <inkscape:perspective
       sodipodi:type="inkscape:persp3d"
       inkscape:vp_x="0 : 73 : 1"
       inkscape:vp_y="0 : 1000 : 0"
       inkscape:vp_z="146 : 73 : 1"
       inkscape:persp3d-origin="73 : 48.666667 : 1"
       id="perspective86" />
    <linearGradient
       id="linearGradient4596">
      <stop
         style="stop-color:#5151ac;stop-opacity:1;"
         offset="0"
         id="stop4598" />
      <stop
         style="stop-color:#000055;stop-opacity:1;"
         offset="1"
         id="stop4600" />
    </linearGradient>
    <linearGradient
       id="linearGradient4588">
      <stop
         style="stop-color:#62769d;stop-opacity:1;"
         offset="0"
         id="stop4590" />
      <stop
         style="stop-color:#ff0000;stop-opacity:0;"
         offset="1"
         id="stop4592" />
    </linearGradient>
    <linearGradient
       id="linearGradient5185">
      <stop
         style="stop-color:#ffffff;stop-opacity:1;"
         offset="0"
         id="stop5187" />
      <stop
         style="stop-color:#000000;stop-opacity:1"
         offset="1"
         id="stop5189" />
    </linearGradient>
    <linearGradient
       id="linearGradient2237">
      <stop
         style="stop-color:#0d0d3f;stop-opacity:1;"
         offset="0"
         id="stop2239" />
      <stop
         id="stop3702"
         offset="0.33628318"
         style="stop-color:#12127a;stop-opacity:1;" />
      <stop
         style="stop-color:#3e3e80;stop-opacity:1"
         offset="1"
         id="stop2241" />
    </linearGradient>
    <filter
       inkscape:collect="always"
       x="-0.13963953"
       width="1.279279"
       y="-0.14821953"
       height="1.2964391"
       id="filter3840">
      <feGaussianBlur
         inkscape:collect="always"
         stdDeviation="6.5521521"
         id="feGaussianBlur3842" />
    </filter>
    <filter
       inkscape:collect="always"
       id="filter6278">
      <feGaussianBlur
         inkscape:collect="always"
         stdDeviation="2.214876"
         id="feGaussianBlur6280" />
    </filter>
    <mask
       maskUnits="userSpaceOnUse"
       id="mask6290">
      <rect
         style="opacity:1;fill:#ffffff;fill-opacity:1;fill-rule:nonzero;stroke:none;stroke-width:1;stroke-linecap:round;stroke-linejoin:round;stroke-miterlimit:4;stroke-dasharray:none;stroke-dashoffset:0;stroke-opacity:1;display:inline"
         id="rect6292"
         width="128"
         height="128"
         x="0"
         y="-8.5265128e-014"
         ry="13.206349"
         inkscape:export-filename="c:\temp\logotest"
         inkscape:export-xdpi="300"
         inkscape:export-ydpi="300" />
    </mask>
    <mask
       maskUnits="userSpaceOnUse"
       id="mask6295">
      <rect
         style="opacity:1;fill:#ffffff;fill-opacity:1;fill-rule:nonzero;stroke:none;stroke-width:1;stroke-linecap:round;stroke-linejoin:round;stroke-miterlimit:4;stroke-dasharray:none;stroke-dashoffset:0;stroke-opacity:1;display:inline"
         id="rect6297"
         width="128"
         height="128"
         x="0"
         y="-8.5265128e-014"
         ry="13.206349"
         inkscape:export-filename="c:\temp\logotest"
         inkscape:export-xdpi="300"
         inkscape:export-ydpi="300" />
    </mask>
    <filter
       inkscape:collect="always"
       id="filter6316">
      <feGaussianBlur
         inkscape:collect="always"
         stdDeviation="0.6425"
         id="feGaussianBlur6318" />
    </filter>
    <filter
       inkscape:collect="always"
       x="-0.096865753"
       width="1.1937315"
       y="-0.13864499"
       height="1.27729"
       id="filter6400">
      <feGaussianBlur
         inkscape:collect="always"
         stdDeviation="5.3595156"
         id="feGaussianBlur6402" />
    </filter>
    <filter
       inkscape:collect="always"
       x="-0.091426807"
       width="1.1828536"
       y="-0.21857401"
       height="1.437148"
       id="filter6510">
      <feGaussianBlur
         inkscape:collect="always"
         stdDeviation="4.3854492"
         id="feGaussianBlur6512" />
    </filter>
    <filter
       inkscape:collect="always"
       x="-0.065166176"
       width="1.1303324"
       y="-0.14160248"
       height="1.283205"
       id="filter6588">
      <feGaussianBlur
         inkscape:collect="always"
         stdDeviation="3.0129427"
         id="feGaussianBlur6590" />
    </filter>
    <filter
       inkscape:collect="always"
       x="-0.10324995"
       width="1.2064999"
       y="-0.19036609"
       height="1.3807322"
       id="filter6628">
      <feGaussianBlur
         inkscape:collect="always"
         stdDeviation="5.1083162"
         id="feGaussianBlur6630" />
    </filter>
    <filter
       inkscape:collect="always"
       x="-0.66312472"
       width="2.3262494"
       y="-0.13057123"
       height="1.2611425"
       id="filter6690">
      <feGaussianBlur
         inkscape:collect="always"
         stdDeviation="2.059841"
         id="feGaussianBlur6692" />
    </filter>
    <filter
       inkscape:collect="always"
       x="-0.75290101"
       width="2.505802"
       y="-0.11094242"
       height="1.2218848"
       id="filter6776">
      <feGaussianBlur
         inkscape:collect="always"
         stdDeviation="2.1015794"
         id="feGaussianBlur6778" />
    </filter>
    <linearGradient
       inkscape:collect="always"
       xlink:href="#linearGradient4596"
       id="linearGradient4602"
       x1="63.296463"
       y1="141"
       x2="63.296463"
       y2="-5.0469656"
       gradientUnits="userSpaceOnUse"
       gradientTransform="translate(13.788582,2.1213203)" />
    <filter
       inkscape:collect="always"
       id="filter3377"
       x="-0.1015625"
       width="1.203125"
       y="-0.087053571"
       height="1.1741071">
      <feGaussianBlur
         inkscape:collect="always"
         stdDeviation="2.7929688"
         id="feGaussianBlur3379" />
    </filter>
    <linearGradient
       inkscape:collect="always"
       xlink:href="#linearGradient4596"
       id="linearGradient3381"
       gradientUnits="userSpaceOnUse"
       gradientTransform="matrix(0.89166667,0,0,0.89166667,19.638582,9.162987)"
       x1="63.296463"
       y1="141"
       x2="63.296463"
       y2="-5.0469656" />
    <filter
       inkscape:collect="always"
       id="filter3419"
       x="-0.10422356"
       width="1.2084471"
       y="-0.093260085"
       height="1.1865202">
      <feGaussianBlur
         inkscape:collect="always"
         stdDeviation="4.0324593"
         id="feGaussianBlur3421" />
    </filter>
    <filter
       inkscape:collect="always"
       id="filter3425"
       x="-0.12187501"
       width="1.24375"
       y="-0.10446428"
       height="1.2089286">
      <feGaussianBlur
         inkscape:collect="always"
         stdDeviation="2.9431967"
         id="feGaussianBlur3427" />
    </filter>
    <filter
       inkscape:collect="always"
       id="filter3451"
       x="-0.1187245"
       width="1.237449"
       y="-0.12130321"
       height="1.2426064">
      <feGaussianBlur
         inkscape:collect="always"
         stdDeviation="7.6549135"
         id="feGaussianBlur3453" />
    </filter>
    <filter
       height="1.3165256"
       y="-0.15826278"
       width="1.3097967"
       x="-0.15489837"
       id="filter3467"
       inkscape:collect="always">
      <feGaussianBlur
         id="feGaussianBlur3469"
         stdDeviation="9.98727"
         inkscape:collect="always" />
    </filter>
    <filter
       inkscape:collect="always"
       id="filter3483"
       x="-0.27362286"
       width="1.5472457"
       y="-0.27956598"
       height="1.559132">
      <feGaussianBlur
         inkscape:collect="always"
         stdDeviation="17.642184"
         id="feGaussianBlur3485" />
    </filter>
    <linearGradient
       inkscape:collect="always"
       xlink:href="#linearGradient4596"
       id="linearGradient3497"
       gradientUnits="userSpaceOnUse"
       gradientTransform="matrix(0.9558335,0,0,0.9558335,16.173573,4.9921428)"
       x1="63.296463"
       y1="141"
       x2="63.296463"
       y2="-5.0469656" />
    <filter
       inkscape:collect="always"
       id="filter3499"
       x="-0.059528317"
       width="1.1190566"
       y="-0.10133829"
       height="1.2026766">
      <feGaussianBlur
         inkscape:collect="always"
         stdDeviation="1.667066"
         id="feGaussianBlur3501" />
    </filter>
    <filter
       inkscape:collect="always"
       id="filter3509"
       x="-0.0309375"
       width="1.061875"
       y="-2.0109374"
       height="5.0218749">
      <feGaussianBlur
         inkscape:collect="always"
         stdDeviation="1.3472814"
         id="feGaussianBlur3511" />
    </filter>
  </defs>
  <sodipodi:namedview
     inkscape:window-height="719"
     inkscape:window-width="1024"
     inkscape:pageshadow="2"
     inkscape:pageopacity="0"
     guidetolerance="10.0"
     gridtolerance="10.0"
     objecttolerance="10.0"
     borderopacity="1.0"
     bordercolor="#666666"
     pagecolor="#ffffff"
     id="base"
     inkscape:zoom="1"
     inkscape:cx="74.122861"
     inkscape:cy="61.737644"
     inkscape:window-x="-4"
     inkscape:window-y="-4"
     inkscape:current-layer="layer2"
     showborder="true"
     inkscape:showpageshadow="false"
     showgrid="false" />
  <g
     inkscape:groupmode="layer"
     id="layer1"
     style="opacity:0.34615383;display:none"
     transform="translate(6,5)">
    <image
       xlink:href="c:\temp\luxlogo.png"
       sodipodi:absref="c:\temp\luxlogo.png"
       width="128"
       height="128"
       id="image2185"
       x="0"
       y="0" />
  </g>
  <g
     inkscape:groupmode="layer"
     id="layer2"
     style="display:inline"
     transform="translate(6,5)">
    <rect
       y="4.7046537"
       x="14.288583"
       height="124.83334"
       width="107"
       id="rect3423"
       style="opacity:1;fill:url(#linearGradient3381);fill-opacity:1;fill-rule:evenodd;stroke:none;filter:url(#filter3425)"
       transform="matrix(1.0719628,0,0,1.0719628,-4.8782561,-4.8302384)"
       inkscape:export-filename="D:\dev\c\tools\wxide\res\estrela.png"
       inkscape:export-xdpi="181.25587"
       inkscape:export-ydpi="181.25587" />
    <rect
       style="opacity:1;fill:url(#linearGradient3497);fill-opacity:1;fill-rule:evenodd;stroke:none"
       id="rect4586"
       width="114.70002"
       height="133.8167"
       x="10.438573"
       y="0.21297537"
       inkscape:export-filename="D:\dev\c\tools\wxide\res\estrela.png"
       inkscape:export-xdpi="181.25587"
       inkscape:export-ydpi="181.25587" />
    <g
       id="g3227"
       transform="matrix(0.36255137,0,0,0.36255137,43.548278,21.953343)"
       inkscape:export-filename="D:\dev\c\tools\wxide\res\estrela.png"
       inkscape:export-xdpi="181.25587"
       inkscape:export-ydpi="181.25587">
      <g
         id="g2599"
         transform="matrix(0.73621364,0,0,0.73621364,15.540372,-36.334537)">
        <path
           sodipodi:nodetypes="csscssc"
           style="opacity:1;fill:#ffffff;fill-opacity:1;fill-rule:nonzero;stroke:none"
           d="M 19.37247,3.0246539 C -16.608082,20.649318 -41.404147,57.657551 -41.404147,100.40056 c 0,59.80351 48.5400427,108.34356 108.343566,108.34356 40.892381,0 76.510811,-22.69984 94.952061,-56.1714 -15.59146,8.96867 -33.63299,14.11858 -52.89924,14.11858 C 50.276054,166.69131 2.5877015,119.06356 2.5877015,60.347369 c 0,-21.110232 6.1656802,-40.772917 16.7847685,-57.3227151 z"
           id="path2193"
           inkscape:export-filename="c:\temp\logotest"
           inkscape:export-xdpi="300"
           inkscape:export-ydpi="300" />
        <path
           style="fill:#ffffff;fill-rule:evenodd;stroke:none"
           d="m 46.59366,22.910342 11.81888,0 9.19246,-10.505671 5.252837,14.445294 11.818878,1.969814 -11.818878,9.192463 0.656603,13.132087 -11.81888,-9.849067 -11.818877,3.939627 4.59623,-11.818877 -7.879253,-10.50567 z"
           id="path2205"
           inkscape:export-filename="c:\temp\logotest"
           inkscape:export-xdpi="300"
           inkscape:export-ydpi="300" />
        <path
           style="fill:#ffffff;fill-rule:evenodd;stroke:none"
           d="m 113.62886,82.661339 13.7887,-14.445296 -5.25284,-19.69813 18.38488,8.535854 15.10187,-10.505668 -1.9698,19.698131 15.1019,12.475482 -19.04153,4.596232 -7.87924,15.758505 -8.53582,-16.41511 -19.69812,0 z"
           id="path2207"
           inkscape:export-filename="c:\temp\logotest"
           inkscape:export-xdpi="300"
           inkscape:export-ydpi="300" />
        <path
           style="fill:#ffffff;fill-rule:evenodd;stroke:none;display:inline"
           d="m 84.710796,92.101734 3.261705,-2.372978 0.427566,-4.744945 4.349957,2.931871 3.6572,-1.829365 -1.416054,4.909864 2.817849,3.492287 -5.239188,-0.345107 -2.470713,3.460214 -1.104536,-4.184532 -4.283786,-1.317309 z"
           id="path2209"
           inkscape:export-filename="c:\temp\logotest"
           inkscape:export-xdpi="300"
           inkscape:export-ydpi="300" />
      </g>
    </g>
    <text
       xml:space="preserve"
       style="font-size:29.89867401px;font-style:normal;font-variant:normal;font-weight:normal;font-stretch:normal;text-align:center;line-height:100%;writing-mode:lr-tb;text-anchor:middle;fill:#ffffff;fill-opacity:1;stroke:none;font-family:Palatino Linotype;-inkscape-font-specification:Palatino Linotype"
       x="66.859642"
       y="95.922615"
       id="text2585"
       sodipodi:linespacing="100%"
       inkscape:export-filename="D:\dev\c\tools\wxide\res\estrela.png"
       inkscape:export-xdpi="181.25587"
       inkscape:export-ydpi="181.25587"><tspan
         sodipodi:role="line"
         id="tspan2587"
         x="66.859642"
         y="95.922615">Estrela</tspan><tspan
         sodipodi:role="line"
         x="66.859642"
         y="125.82129"
         id="tspan2589">Editor</tspan></text>
    <rect
       style="fill:#ffffff;fill-opacity:1;fill-rule:nonzero;stroke:none;"
       id="rect3383"
       width="104.51637"
       height="1.6079443"
       x="15.530396"
       y="99.936134"
       inkscape:export-filename="D:\dev\c\tools\wxide\res\estrela.png"
       inkscape:export-xdpi="181.25587"
       inkscape:export-ydpi="181.25587" />
    <g
       transform="matrix(0.36255137,0,0,0.36255137,43.548278,21.953343)"
       id="g3439"
       style="filter:url(#filter3451)"
       inkscape:export-filename="D:\dev\c\tools\wxide\res\estrela.png"
       inkscape:export-xdpi="181.25587"
       inkscape:export-ydpi="181.25587">
      <g
         transform="matrix(0.73621364,0,0,0.73621364,15.540372,-36.334537)"
         id="g3441">
        <path
           inkscape:export-ydpi="300"
           inkscape:export-xdpi="300"
           inkscape:export-filename="c:\temp\logotest"
           id="path3443"
           d="M 19.37247,3.0246539 C -16.608082,20.649318 -41.404147,57.657551 -41.404147,100.40056 c 0,59.80351 48.5400427,108.34356 108.343566,108.34356 40.892381,0 76.510811,-22.69984 94.952061,-56.1714 -15.59146,8.96867 -33.63299,14.11858 -52.89924,14.11858 C 50.276054,166.69131 2.5877015,119.06356 2.5877015,60.347369 c 0,-21.110232 6.1656802,-40.772917 16.7847685,-57.3227151 z"
           style="opacity:1;fill:#ffffff;fill-opacity:1;fill-rule:nonzero;stroke:none"
           sodipodi:nodetypes="csscssc" />
        <path
           inkscape:export-ydpi="300"
           inkscape:export-xdpi="300"
           inkscape:export-filename="c:\temp\logotest"
           id="path3445"
           d="m 46.59366,22.910342 11.81888,0 9.19246,-10.505671 5.252837,14.445294 11.818878,1.969814 -11.818878,9.192463 0.656603,13.132087 -11.81888,-9.849067 -11.818877,3.939627 4.59623,-11.818877 -7.879253,-10.50567 z"
           style="fill:#ffffff;fill-rule:evenodd;stroke:none" />
        <path
           inkscape:export-ydpi="300"
           inkscape:export-xdpi="300"
           inkscape:export-filename="c:\temp\logotest"
           id="path3447"
           d="m 113.62886,82.661339 13.7887,-14.445296 -5.25284,-19.69813 18.38488,8.535854 15.10187,-10.505668 -1.9698,19.698131 15.1019,12.475482 -19.04153,4.596232 -7.87924,15.758505 -8.53582,-16.41511 -19.69812,0 z"
           style="fill:#ffffff;fill-rule:evenodd;stroke:none" />
        <path
           inkscape:export-ydpi="300"
           inkscape:export-xdpi="300"
           inkscape:export-filename="c:\temp\logotest"
           id="path3449"
           d="m 84.710796,92.101734 3.261705,-2.372978 0.427566,-4.744945 4.349957,2.931871 3.6572,-1.829365 -1.416054,4.909864 2.817849,3.492287 -5.239188,-0.345107 -2.470713,3.460214 -1.104536,-4.184532 -4.283786,-1.317309 z"
           style="fill:#ffffff;fill-rule:evenodd;stroke:none;display:inline" />
      </g>
    </g>
    <g
       style="filter:url(#filter3467)"
       id="g3455"
       transform="matrix(0.36255137,0,0,0.36255137,43.548278,21.953343)"
       inkscape:export-filename="D:\dev\c\tools\wxide\res\estrela.png"
       inkscape:export-xdpi="181.25587"
       inkscape:export-ydpi="181.25587">
      <g
         id="g3457"
         transform="matrix(0.73621364,0,0,0.73621364,15.540372,-36.334537)">
        <path
           sodipodi:nodetypes="csscssc"
           style="opacity:1;fill:#ffffff;fill-opacity:1;fill-rule:nonzero;stroke:none"
           d="M 19.37247,3.0246539 C -16.608082,20.649318 -41.404147,57.657551 -41.404147,100.40056 c 0,59.80351 48.5400427,108.34356 108.343566,108.34356 40.892381,0 76.510811,-22.69984 94.952061,-56.1714 -15.59146,8.96867 -33.63299,14.11858 -52.89924,14.11858 C 50.276054,166.69131 2.5877015,119.06356 2.5877015,60.347369 c 0,-21.110232 6.1656802,-40.772917 16.7847685,-57.3227151 z"
           id="path3459"
           inkscape:export-filename="c:\temp\logotest"
           inkscape:export-xdpi="300"
           inkscape:export-ydpi="300" />
        <path
           style="fill:#ffffff;fill-rule:evenodd;stroke:none"
           d="m 46.59366,22.910342 11.81888,0 9.19246,-10.505671 5.252837,14.445294 11.818878,1.969814 -11.818878,9.192463 0.656603,13.132087 -11.81888,-9.849067 -11.818877,3.939627 4.59623,-11.818877 -7.879253,-10.50567 z"
           id="path3461"
           inkscape:export-filename="c:\temp\logotest"
           inkscape:export-xdpi="300"
           inkscape:export-ydpi="300" />
        <path
           style="fill:#ffffff;fill-rule:evenodd;stroke:none"
           d="m 113.62886,82.661339 13.7887,-14.445296 -5.25284,-19.69813 18.38488,8.535854 15.10187,-10.505668 -1.9698,19.698131 15.1019,12.475482 -19.04153,4.596232 -7.87924,15.758505 -8.53582,-16.41511 -19.69812,0 z"
           id="path3463"
           inkscape:export-filename="c:\temp\logotest"
           inkscape:export-xdpi="300"
           inkscape:export-ydpi="300" />
        <path
           style="fill:#ffffff;fill-rule:evenodd;stroke:none;display:inline"
           d="m 84.710796,92.101734 3.261705,-2.372978 0.427566,-4.744945 4.349957,2.931871 3.6572,-1.829365 -1.416054,4.909864 2.817849,3.492287 -5.239188,-0.345107 -2.470713,3.460214 -1.104536,-4.184532 -4.283786,-1.317309 z"
           id="path3465"
           inkscape:export-filename="c:\temp\logotest"
           inkscape:export-xdpi="300"
           inkscape:export-ydpi="300" />
      </g>
    </g>
    <g
       transform="matrix(0.36255137,0,0,0.36255137,43.548278,21.953343)"
       id="g3471"
       style="filter:url(#filter3483)"
       inkscape:export-filename="D:\dev\c\tools\wxide\res\estrela.png"
       inkscape:export-xdpi="181.25587"
       inkscape:export-ydpi="181.25587">
      <g
         transform="matrix(0.73621364,0,0,0.73621364,15.540372,-36.334537)"
         id="g3473">
        <path
           inkscape:export-ydpi="300"
           inkscape:export-xdpi="300"
           inkscape:export-filename="c:\temp\logotest"
           id="path3475"
           d="M 19.37247,3.0246539 C -16.608082,20.649318 -41.404147,57.657551 -41.404147,100.40056 c 0,59.80351 48.5400427,108.34356 108.343566,108.34356 40.892381,0 76.510811,-22.69984 94.952061,-56.1714 -15.59146,8.96867 -33.63299,14.11858 -52.89924,14.11858 C 50.276054,166.69131 2.5877015,119.06356 2.5877015,60.347369 c 0,-21.110232 6.1656802,-40.772917 16.7847685,-57.3227151 z"
           style="opacity:1;fill:#ffffff;fill-opacity:1;fill-rule:nonzero;stroke:none"
           sodipodi:nodetypes="csscssc" />
        <path
           inkscape:export-ydpi="300"
           inkscape:export-xdpi="300"
           inkscape:export-filename="c:\temp\logotest"
           id="path3477"
           d="m 46.59366,22.910342 11.81888,0 9.19246,-10.505671 5.252837,14.445294 11.818878,1.969814 -11.818878,9.192463 0.656603,13.132087 -11.81888,-9.849067 -11.818877,3.939627 4.59623,-11.818877 -7.879253,-10.50567 z"
           style="fill:#ffffff;fill-rule:evenodd;stroke:none" />
        <path
           inkscape:export-ydpi="300"
           inkscape:export-xdpi="300"
           inkscape:export-filename="c:\temp\logotest"
           id="path3479"
           d="m 113.62886,82.661339 13.7887,-14.445296 -5.25284,-19.69813 18.38488,8.535854 15.10187,-10.505668 -1.9698,19.698131 15.1019,12.475482 -19.04153,4.596232 -7.87924,15.758505 -8.53582,-16.41511 -19.69812,0 z"
           style="fill:#ffffff;fill-rule:evenodd;stroke:none" />
        <path
           inkscape:export-ydpi="300"
           inkscape:export-xdpi="300"
           inkscape:export-filename="c:\temp\logotest"
           id="path3481"
           d="m 84.710796,92.101734 3.261705,-2.372978 0.427566,-4.744945 4.349957,2.931871 3.6572,-1.829365 -1.416054,4.909864 2.817849,3.492287 -5.239188,-0.345107 -2.470713,3.460214 -1.104536,-4.184532 -4.283786,-1.317309 z"
           style="fill:#ffffff;fill-rule:evenodd;stroke:none;display:inline" />
      </g>
    </g>
    <text
       sodipodi:linespacing="100%"
       id="text3487"
       y="93.989136"
       x="66.922005"
       style="font-size:27.89152144999999900px;font-style:normal;font-variant:normal;font-weight:normal;font-stretch:normal;text-align:center;line-height:100%;writing-mode:lr-tb;text-anchor:middle;fill:#ffffff;fill-opacity:1;stroke:none;font-family:Palatino Linotype;-inkscape-font-specification:Palatino Linotype;filter:url(#filter3499);opacity:1"
       xml:space="preserve"
       transform="matrix(1.0719628,0,0,1.0719628,-4.8782561,-4.8302384)"
       inkscape:export-filename="D:\dev\c\tools\wxide\res\estrela.png"
       inkscape:export-xdpi="181.25587"
       inkscape:export-ydpi="181.25587"><tspan
         y="93.989136"
         x="66.922005"
         id="tspan3489"
         sodipodi:role="line">Estrela</tspan><tspan
         id="tspan3491"
         y="121.88066"
         x="66.922005"
         sodipodi:role="line">Editor</tspan></text>
    <rect
       y="99.936134"
       x="15.530396"
       height="1.6079443"
       width="104.51637"
       id="rect3507"
       style="fill:#ffffff;fill-opacity:1;fill-rule:nonzero;stroke:none;filter:url(#filter3509)"
       inkscape:export-xdpi="181.25587"
       inkscape:export-ydpi="181.25587"
       inkscape:export-filename="D:\dev\c\tools\wxide\res\estrela.png" />
  </g>
  <g
     inkscape:groupmode="layer"
     id="layer4"
     inkscape:label="uninstall"
     style="opacity:0.87179488;display:none">
    <path
       style="opacity:0.90909095;fill:#ff0000;fill-rule:evenodd;stroke:none;stroke-width:1px;stroke-linecap:butt;stroke-linejoin:miter;stroke-opacity:1;filter:url(#filter6628)"
       d="M 14,129.5 C 14.336023,78.681123 10.223888,102.29852 28,126 C 30.459675,129.27957 31.666667,118.66667 33.5,115 C 34.280157,113.43969 60.370804,77.40912 51.5,105.5 C 50.690734,108.06268 52.166667,110.83333 52.5,113.5 C 53.627928,122.52343 58.069819,95.430181 64.5,89 C 77.260993,76.239007 72.034223,53.027263 77.5,84 C 81.920823,109.05133 73.638657,88.715336 86.5,85.5 C 115.4259,78.268526 69.170508,123.74712 95.5,104 C 128.78796,79.03403 116,64.235283 116,113.5 C 116,117.62311 118,105.5 119,101.5 C 121.13437,92.962501 126.33333,117.5 130,125.5 C 130.87839,127.41648 131.33333,121.5 132,119.5 C 133.424,115.228 131.66667,128.5 131.5,133"
       id="path6594"
       transform="matrix(1,0,0,1.6987359,0,-92.931881)" />
    <path
       style="opacity:0.81404952;fill:#ff0000;fill-rule:nonzero;stroke:none;stroke-width:1px;stroke-linecap:butt;stroke-linejoin:miter;stroke-opacity:1;display:inline;filter:url(#filter6400)"
       d="M 9.5,127 C 9.3333333,127 9.1666667,127 9,127 C 5.1450826,127 5,115.26288 5,113 C 5,108.88399 4.5,104.31286 4.5,100 C 4.5,90.729345 9.3911698,86.181384 14,78.5 C 16.525846,74.290257 21.294069,70.176551 23.5,66.5 C 24.010025,65.649958 19.12736,72.1816 18,75 C 16.175585,79.561038 16.938863,85.255452 18,89.5 C 19.417577,95.17031 20.550245,97.050245 24.5,101 C 27.204082,103.70408 28.564013,105.87197 30.5,102 C 32.717007,97.565986 32.821681,88.213274 34,83.5 C 36.21779,74.628838 33.5,60.648945 33.5,51.5 C 33.5,51.084452 43.746631,33.513476 40.5,46.5 C 37.526688,58.393246 42.328731,65.743097 48.5,75 C 57.52302,88.53453 51.657407,61.728395 65.5,52.5 C 75.452786,45.864809 69.5,56.563364 69.5,63.5 C 69.5,97.806907 73.726993,52.544988 80,63 C 104.74932,104.24887 98.5,68.637999 98.5,48 C 98.5,43.548461 105.9654,52.637713 112,63.5 C 131.67898,98.922169 101.60755,95.392446 125.5,71.5 C 131.39727,65.602731 126.5,88.160003 126.5,96.5 C 126.5,103.50198 126.00977,110.56839 127,117.5 C 127.95497,124.1848 139.22574,81.791102 137,108.5 C 136.48054,114.73353 136,120.29333 136,126.5 C 136,131.40801 136.45529,134 131,134 C 124.83333,134 118.66667,134 112.5,134 C 106.66667,134 100.83333,134 95,134 C 87.666667,134 80.333333,134 73,134 C 59.815481,134 46.676285,134.5 33.5,134.5 C 29,134.5 24.5,134.5 20,134.5 C 17.560468,134.5 15.299427,130.79943 14.5,130 C 12.881524,128.38152 11.876707,127.47534 9.5,127 z "
       id="path6360" />
    <path
       style="opacity:0.7892562;fill:#ffff00;fill-rule:evenodd;stroke:none;stroke-width:1px;stroke-linecap:butt;stroke-linejoin:miter;stroke-opacity:1;filter:url(#filter6510)"
       d="M 18,133 C 17.666667,128.16667 17.333333,123.33333 17,118.5 C 16.12131,105.759 12.392768,108.83915 20.5,121 C 26.928487,130.64273 27.121348,121.87865 34.5,114.5 C 40.14466,108.85534 28.809035,133.69097 46.5,116 C 69.437036,93.062964 57.251105,73.257733 62,106.5 C 62.141421,107.48995 62,108.5 62,109.5 C 62,116.18839 65.961948,99.019026 77,93.5 C 84.016889,89.991555 79.782388,94.911939 82,106 C 84.489642,118.44821 104.6601,90.259847 107.5,86 C 108.99663,83.755053 110.63899,106.80503 109.5,112.5 C 107.85301,120.73495 118.5,80.922943 118.5,109 C 118.5,136.59389 130.5,113.97346 130.5,123.5 C 130.5,126.59415 130.47115,131.64424 130,134"
       id="path6404" />
    <path
       style="opacity:0.47107436;fill:#ffff00;fill-rule:evenodd;stroke:none;stroke-width:1px;stroke-linecap:butt;stroke-linejoin:miter;stroke-opacity:1;filter:url(#filter6588)"
       d="M 23,129.5 C 23,132.18128 23.707157,117.52684 20.5,105.5 C 18.755021,98.956331 22.5,82.949866 22.5,98 C 22.5,101.13302 26.815124,126.46219 32,113.5 C 37.373635,100.06591 49.880495,78.048761 46.5,86.5 C 45.909734,87.975665 37.7573,136.7281 47.5,107.5 C 47.857122,106.42863 51.414918,124.58508 58,118 C 68.456644,107.54336 70,50.914151 70,100.5 C 70,131.81187 78.663987,96.334003 94,92.5 C 101.72907,90.567732 88.111037,107.55652 87.5,115.5 C 87.384247,117.00479 87.833333,118.5 88,120 C 89.236992,131.13293 100.98113,100.50944 111,95.5 C 121.54122,90.229389 111.5,106.05757 111.5,112 C 111.5,113.79505 112.83333,115.33333 113.5,117 C 114.6363,119.84076 116.5,111.66667 118,109 C 127.18664,92.668192 120.25003,138.81244 129.5,118 C 129.81325,117.2952 131,128.12728 131,131.5"
       id="path6514"
       transform="matrix(1,0,0,1.558102,0,-73.390417)" />
    <path
       style="opacity:0.73966944;fill:#ffa500;fill-opacity:1;fill-rule:evenodd;stroke:none;stroke-width:1px;stroke-linecap:butt;stroke-linejoin:miter;stroke-opacity:1;filter:url(#filter6690)"
       d="M 98.5,75 C 103.15482,68.57691 90.320092,24.848129 101.5,40.5 C 102.88049,42.432688 106.61962,69.035283 102,72.5 C 100.85302,73.360232 99.666667,74.166667 98.5,75 z "
       id="path6632" />
    <path
       style="opacity:0.94214872;fill:#ffba00;fill-opacity:1;fill-rule:evenodd;stroke:none;stroke-width:1px;stroke-linecap:butt;stroke-linejoin:miter;stroke-opacity:1;filter:url(#filter6776)"
       d="M 51,68 C 45.233621,73.766379 50.387595,36.449622 50.5,36 C 53.115126,25.539495 57.714899,13.962753 49.5,34.5 C 44.403872,47.24032 50.084923,57.754768 53.5,68 C 53.763523,68.790569 51.833333,68 51,68 z "
       id="path6696" />
  </g>
  <g
     inkscape:groupmode="layer"
     id="layer3"
     inkscape:label="border"
     style="display:none">
    <rect
       transform="translate(6,5)"
       style="opacity:1;fill:none;fill-opacity:1;fill-rule:nonzero;stroke:#000000;stroke-width:1;stroke-linecap:round;stroke-linejoin:round;stroke-miterlimit:4;stroke-dasharray:none;stroke-dashoffset:0;stroke-opacity:1;display:inline;filter:url(#filter6316)"
       id="rect6282"
       width="128"
       height="128"
       x="0"
       y="-8.5265128e-014"
       ry="13.206349"
       inkscape:export-filename="c:\temp\logotest"
       inkscape:export-xdpi="300"
       inkscape:export-ydpi="300" />
    <rect
       transform="translate(6,5)"
       style="opacity:1;fill:none;fill-opacity:1;fill-rule:nonzero;stroke:#ffffff;stroke-width:6;stroke-linecap:round;stroke-linejoin:round;stroke-miterlimit:4;stroke-dasharray:none;stroke-dashoffset:0;stroke-opacity:1;display:inline;filter:url(#filter6278)"
       id="rect4190"
       width="128"
       height="128"
       x="0"
       y="-8.5265128e-014"
       ry="13.206349"
       inkscape:export-filename="c:\temp\logotest"
       inkscape:export-xdpi="300"
       inkscape:export-ydpi="300"
       mask="url(#mask6290)" />
    <rect
       transform="translate(6,5)"
       style="opacity:1;fill:none;fill-opacity:1;fill-rule:nonzero;stroke:#ffffff;stroke-width:3;stroke-linecap:round;stroke-linejoin:round;stroke-miterlimit:4;stroke-dasharray:none;stroke-dashoffset:0;stroke-opacity:1;display:inline"
       id="rect5203"
       width="128"
       height="128"
       x="0"
       y="-8.5265128e-014"
       ry="13.206349"
       inkscape:export-filename="c:\temp\logotest"
       inkscape:export-xdpi="300"
       inkscape:export-ydpi="300"
       mask="url(#mask6295)" />
  </g>
</svg>
