<?xml version="1.0" encoding="UTF-8" standalone="no"?>
<!-- Created with Inkscape (http://www.inkscape.org/) -->

<svg
   xmlns:dc="http://purl.org/dc/elements/1.1/"
   xmlns:cc="http://creativecommons.org/ns#"
   xmlns:rdf="http://www.w3.org/1999/02/22-rdf-syntax-ns#"
   xmlns:svg="http://www.w3.org/2000/svg"
   xmlns="http://www.w3.org/2000/svg"
   xmlns:sodipodi="http://sodipodi.sourceforge.net/DTD/sodipodi-0.dtd"
   xmlns:inkscape="http://www.inkscape.org/namespaces/inkscape"
   width="512"
   height="512"
   id="svg2"
   version="1.1"
   inkscape:version="0.48.1 r9760"
   sodipodi:docname="chrome.svg"
   inkscape:export-filename="/Users/paul/src/OpenRA/mods/cnc/uibits/chrome.png"
   inkscape:export-xdpi="90"
   inkscape:export-ydpi="90">
  <defs
     id="defs4">
    <marker
       style="overflow:visible;"
       id="Arrow1Lend"
       refX="0.0"
       refY="0.0"
       orient="auto"
       inkscape:stockid="Arrow1Lend">
      <path
         transform="scale(0.8) rotate(180) translate(12.5,0)"
         style="fill-rule:evenodd;stroke:#000000;stroke-width:1.0pt;marker-start:none;"
         d="M 0.0,0.0 L 5.0,-5.0 L -12.5,0.0 L 5.0,5.0 L 0.0,0.0 z "
         id="path4339" />
    </marker>
    <marker
       style="overflow:visible"
       id="TriangleOutL"
       refX="0.0"
       refY="0.0"
       orient="auto"
       inkscape:stockid="TriangleOutL">
      <path
         transform="scale(0.8)"
         style="fill-rule:evenodd;stroke:#000000;stroke-width:1.0pt;marker-start:none"
         d="M 5.77,0.0 L -2.88,5.0 L -2.88,-5.0 L 5.77,0.0 z "
         id="path4479" />
    </marker>
  </defs>
  <sodipodi:namedview
     id="base"
     pagecolor="#ffffff"
     bordercolor="#666666"
     borderopacity="1.0"
     inkscape:pageopacity="0.0"
     inkscape:pageshadow="2"
     inkscape:zoom="4"
     inkscape:cx="293.08008"
     inkscape:cy="512.48057"
     inkscape:document-units="px"
     inkscape:current-layer="layer1"
     showgrid="false"
     inkscape:window-width="1386"
     inkscape:window-height="856"
     inkscape:window-x="54"
     inkscape:window-y="22"
     inkscape:window-maximized="0"
     showguides="true"
     inkscape:guide-bbox="true">
    <sodipodi:guide
       orientation="0,1"
       position="288.14601,448.3057"
       id="guide3073" />
    <sodipodi:guide
       orientation="0,1"
       position="244.65895,383.60543"
       id="guide3948" />
    <sodipodi:guide
       orientation="1,0"
       position="255.6191,441.23463"
       id="guide3979" />
    <sodipodi:guide
       orientation="1,0"
       position="384,639"
       id="guide3981" />
  </sodipodi:namedview>
  <metadata
     id="metadata7">
    <rdf:RDF>
      <cc:Work
         rdf:about="">
        <dc:format>image/svg+xml</dc:format>
        <dc:type
           rdf:resource="http://purl.org/dc/dcmitype/StillImage" />
        <dc:title></dc:title>
      </cc:Work>
    </rdf:RDF>
  </metadata>
  <g
     inkscape:label="Layer 1"
     inkscape:groupmode="layer"
     id="layer1"
     transform="translate(0,-540.3622)">
    <rect
       style="fill:#2b0000;fill-opacity:0.87843137;stroke:#800000;stroke-width:1;stroke-linecap:square;stroke-miterlimit:4;stroke-dasharray:none"
       id="rect3776-3"
       width="63"
       height="63"
       x="0.5"
       y="732.86218"
       inkscape:export-filename="/Users/paul/src/OpenRA/mods/cnc/uibits/rect3776.png"
       inkscape:export-xdpi="90"
       inkscape:export-ydpi="90" />
    <rect
       inkscape:export-ydpi="90"
       inkscape:export-xdpi="90"
       inkscape:export-filename="/Users/paul/src/OpenRA/mods/cnc/uibits/rect3776.png"
       y="668.86218"
       x="0.5"
       height="63"
       width="63"
       id="rect3759"
       style="fill:#560000;fill-opacity:0.87843137;stroke:#c00000;stroke-width:1;stroke-linecap:square;stroke-miterlimit:4;stroke-opacity:1;stroke-dasharray:none" />
    <rect
       inkscape:export-ydpi="90"
       inkscape:export-xdpi="90"
       inkscape:export-filename="/Users/paul/src/OpenRA/mods/cnc/uibits/rect3776.png"
       y="668.86218"
       x="64.5"
       height="63"
       width="63"
       id="rect2984-3"
       style="fill:#2b2b2b;fill-opacity:0.87843137;stroke:#800000;stroke-width:1;stroke-linecap:square;stroke-miterlimit:4;stroke-opacity:1;stroke-dasharray:none" />
    <rect
       inkscape:export-ydpi="90"
       inkscape:export-xdpi="90"
       inkscape:export-filename="/Users/paul/src/OpenRA/mods/cnc/uibits/rect3776.png"
       y="732.86218"
       x="64.5"
       height="63"
       width="63"
       id="rect3753"
       style="fill:#0f0000;fill-opacity:0.87843137;stroke:#c00000;stroke-width:1;stroke-linecap:square;stroke-miterlimit:4;stroke-opacity:1;stroke-dasharray:none" />
    <rect
       style="fill:#2b0000;fill-opacity:0.87843137;stroke:#800000;stroke-width:1;stroke-linecap:square;stroke-miterlimit:4;stroke-dasharray:none"
       id="rect3776"
       width="63"
       height="63"
       x="0.5"
       y="604.86218"
       inkscape:export-filename="/Users/paul/src/OpenRA/mods/cnc/uibits/rect3776.png"
       inkscape:export-xdpi="90"
       inkscape:export-ydpi="90" />
    <rect
       inkscape:export-ydpi="90"
       inkscape:export-xdpi="90"
       inkscape:export-filename="/Users/paul/src/OpenRA/mods/cnc/uibits/rect3776.png"
       y="-603.86218"
       x="64.5"
       height="63"
       width="63"
       id="rect2984"
       style="fill:#000000;fill-opacity:0.75294118;stroke:#800000;stroke-width:1;stroke-linecap:square;stroke-miterlimit:4;stroke-dasharray:none"
       transform="scale(1,-1)" />
    <rect
       transform="scale(1,-1)"
       style="fill:#302020;fill-opacity:0.75294118;stroke:#800000;stroke-width:1;stroke-linecap:square;stroke-miterlimit:4;stroke-dasharray:none"
       id="rect3007"
       width="63"
       height="63"
       x="64.5"
       y="-667.86218"
       inkscape:export-filename="/Users/paul/src/OpenRA/mods/cnc/uibits/rect3776.png"
       inkscape:export-xdpi="90"
       inkscape:export-ydpi="90" />
    <g
       id="g3052"
       transform="translate(-128,-256)">
      <path
         inkscape:connector-curvature="0"
         id="path5225"
         d="m 128.5,796.8622 63.00122,0"
         style="fill:none;stroke:#000000;stroke-width:1;stroke-linecap:square;stroke-linejoin:miter;stroke-miterlimit:4;stroke-opacity:1;stroke-dasharray:none" />
      <path
         style="fill:none;stroke:#000000;stroke-width:1;stroke-linecap:square;stroke-linejoin:miter;stroke-miterlimit:4;stroke-opacity:1;stroke-dasharray:none"
         d="m 128.5,798.8622 63.00122,0"
         id="path5229"
         inkscape:connector-curvature="0" />
      <path
         inkscape:connector-curvature="0"
         id="path5231"
         d="m 128.5,800.8622 63.00122,0"
         style="fill:none;stroke:#000000;stroke-width:1;stroke-linecap:square;stroke-linejoin:miter;stroke-miterlimit:4;stroke-opacity:1;stroke-dasharray:none" />
      <path
         style="fill:none;stroke:#000000;stroke-width:1;stroke-linecap:square;stroke-linejoin:miter;stroke-miterlimit:4;stroke-opacity:1;stroke-dasharray:none"
         d="m 128.5,802.8622 63.00122,0"
         id="path5233"
         inkscape:connector-curvature="0" />
      <path
         inkscape:connector-curvature="0"
         id="path5235"
         d="m 128.5,804.8622 63.00122,0"
         style="fill:none;stroke:#000000;stroke-width:1;stroke-linecap:square;stroke-linejoin:miter;stroke-miterlimit:4;stroke-opacity:1;stroke-dasharray:none" />
      <path
         style="fill:none;stroke:#000000;stroke-width:1;stroke-linecap:square;stroke-linejoin:miter;stroke-miterlimit:4;stroke-opacity:1;stroke-dasharray:none"
         d="m 128.5,806.8622 63.00122,0"
         id="path5237"
         inkscape:connector-curvature="0" />
      <path
         inkscape:connector-curvature="0"
         id="path5239"
         d="m 128.5,808.8622 63.00122,0"
         style="fill:none;stroke:#000000;stroke-width:1;stroke-linecap:square;stroke-linejoin:miter;stroke-miterlimit:4;stroke-opacity:1;stroke-dasharray:none" />
      <path
         style="fill:none;stroke:#000000;stroke-width:1;stroke-linecap:square;stroke-linejoin:miter;stroke-miterlimit:4;stroke-opacity:1;stroke-dasharray:none"
         d="m 128.5,810.8622 63.00122,0"
         id="path5241"
         inkscape:connector-curvature="0" />
      <path
         inkscape:connector-curvature="0"
         id="path5243"
         d="m 128.5,812.8622 63.00122,0"
         style="fill:none;stroke:#000000;stroke-width:1;stroke-linecap:square;stroke-linejoin:miter;stroke-miterlimit:4;stroke-opacity:1;stroke-dasharray:none" />
      <path
         style="fill:none;stroke:#000000;stroke-width:1;stroke-linecap:square;stroke-linejoin:miter;stroke-miterlimit:4;stroke-opacity:1;stroke-dasharray:none"
         d="m 128.5,814.8622 63.00122,0"
         id="path5245"
         inkscape:connector-curvature="0" />
      <path
         inkscape:connector-curvature="0"
         id="path5247"
         d="m 128.5,816.8622 63.00122,0"
         style="fill:none;stroke:#000000;stroke-width:1;stroke-linecap:square;stroke-linejoin:miter;stroke-miterlimit:4;stroke-opacity:1;stroke-dasharray:none" />
      <path
         style="fill:none;stroke:#000000;stroke-width:1;stroke-linecap:square;stroke-linejoin:miter;stroke-miterlimit:4;stroke-opacity:1;stroke-dasharray:none"
         d="m 128.5,818.8622 63.00122,0"
         id="path5249"
         inkscape:connector-curvature="0" />
      <path
         inkscape:connector-curvature="0"
         id="path5251"
         d="m 128.5,820.8622 63.00122,0"
         style="fill:none;stroke:#000000;stroke-width:1;stroke-linecap:square;stroke-linejoin:miter;stroke-miterlimit:4;stroke-opacity:1;stroke-dasharray:none" />
      <path
         style="fill:none;stroke:#000000;stroke-width:1;stroke-linecap:square;stroke-linejoin:miter;stroke-miterlimit:4;stroke-opacity:1;stroke-dasharray:none"
         d="m 128.5,822.8622 63.00122,0"
         id="path5253"
         inkscape:connector-curvature="0" />
      <path
         inkscape:connector-curvature="0"
         id="path5255"
         d="m 128.5,824.8622 63.00122,0"
         style="fill:none;stroke:#000000;stroke-width:1;stroke-linecap:square;stroke-linejoin:miter;stroke-miterlimit:4;stroke-opacity:1;stroke-dasharray:none" />
      <path
         style="fill:none;stroke:#000000;stroke-width:1;stroke-linecap:square;stroke-linejoin:miter;stroke-miterlimit:4;stroke-opacity:1;stroke-dasharray:none"
         d="m 128.5,826.8622 63.00122,0"
         id="path5257"
         inkscape:connector-curvature="0" />
      <path
         inkscape:connector-curvature="0"
         id="path5259"
         d="m 128.5,828.8622 63.00122,0"
         style="fill:none;stroke:#000000;stroke-width:1;stroke-linecap:square;stroke-linejoin:miter;stroke-miterlimit:4;stroke-opacity:1;stroke-dasharray:none" />
      <path
         style="fill:none;stroke:#000000;stroke-width:1;stroke-linecap:square;stroke-linejoin:miter;stroke-miterlimit:4;stroke-opacity:1;stroke-dasharray:none"
         d="m 128.5,830.8622 63.00122,0"
         id="path5261"
         inkscape:connector-curvature="0" />
      <path
         inkscape:connector-curvature="0"
         id="path5263"
         d="m 128.5,832.8622 63.00122,0"
         style="fill:none;stroke:#000000;stroke-width:1;stroke-linecap:square;stroke-linejoin:miter;stroke-miterlimit:4;stroke-opacity:1;stroke-dasharray:none" />
      <path
         style="fill:none;stroke:#000000;stroke-width:1;stroke-linecap:square;stroke-linejoin:miter;stroke-miterlimit:4;stroke-opacity:1;stroke-dasharray:none"
         d="m 128.5,834.8622 63.00122,0"
         id="path5265"
         inkscape:connector-curvature="0" />
      <path
         inkscape:connector-curvature="0"
         id="path5267"
         d="m 128.5,836.8622 63.00122,0"
         style="fill:none;stroke:#000000;stroke-width:1;stroke-linecap:square;stroke-linejoin:miter;stroke-miterlimit:4;stroke-opacity:1;stroke-dasharray:none" />
      <path
         style="fill:none;stroke:#000000;stroke-width:1;stroke-linecap:square;stroke-linejoin:miter;stroke-miterlimit:4;stroke-opacity:1;stroke-dasharray:none"
         d="m 128.5,838.8622 63.00122,0"
         id="path5269"
         inkscape:connector-curvature="0" />
      <path
         inkscape:connector-curvature="0"
         id="path5271"
         d="m 128.5,840.8622 63.00122,0"
         style="fill:none;stroke:#000000;stroke-width:1;stroke-linecap:square;stroke-linejoin:miter;stroke-miterlimit:4;stroke-opacity:1;stroke-dasharray:none" />
      <path
         style="fill:none;stroke:#000000;stroke-width:1;stroke-linecap:square;stroke-linejoin:miter;stroke-miterlimit:4;stroke-opacity:1;stroke-dasharray:none"
         d="m 128.5,842.8622 63.00122,0"
         id="path5273"
         inkscape:connector-curvature="0" />
      <path
         inkscape:connector-curvature="0"
         id="path5275"
         d="m 128.5,844.8622 63.00122,0"
         style="fill:none;stroke:#000000;stroke-width:1;stroke-linecap:square;stroke-linejoin:miter;stroke-miterlimit:4;stroke-opacity:1;stroke-dasharray:none" />
      <path
         style="fill:none;stroke:#000000;stroke-width:1;stroke-linecap:square;stroke-linejoin:miter;stroke-miterlimit:4;stroke-opacity:1;stroke-dasharray:none"
         d="m 128.5,846.8622 63.00122,0"
         id="path5277"
         inkscape:connector-curvature="0" />
      <path
         inkscape:connector-curvature="0"
         id="path5279"
         d="m 128.5,848.8622 63.00122,0"
         style="fill:none;stroke:#000000;stroke-width:1;stroke-linecap:square;stroke-linejoin:miter;stroke-miterlimit:4;stroke-opacity:1;stroke-dasharray:none" />
      <path
         style="fill:none;stroke:#000000;stroke-width:1;stroke-linecap:square;stroke-linejoin:miter;stroke-miterlimit:4;stroke-opacity:1;stroke-dasharray:none"
         d="m 128.5,850.8622 63.00122,0"
         id="path5281"
         inkscape:connector-curvature="0" />
      <path
         inkscape:connector-curvature="0"
         id="path5283"
         d="m 128.5,852.8622 63.00122,0"
         style="fill:none;stroke:#000000;stroke-width:1;stroke-linecap:square;stroke-linejoin:miter;stroke-miterlimit:4;stroke-opacity:1;stroke-dasharray:none" />
      <path
         style="fill:none;stroke:#000000;stroke-width:1;stroke-linecap:square;stroke-linejoin:miter;stroke-miterlimit:4;stroke-opacity:1;stroke-dasharray:none"
         d="m 128.5,854.8622 63.00122,0"
         id="path5285"
         inkscape:connector-curvature="0" />
      <path
         inkscape:connector-curvature="0"
         id="path5287"
         d="m 128.5,856.8622 63.00122,0"
         style="fill:none;stroke:#000000;stroke-width:1;stroke-linecap:square;stroke-linejoin:miter;stroke-miterlimit:4;stroke-opacity:1;stroke-dasharray:none" />
      <path
         style="fill:none;stroke:#000000;stroke-width:1;stroke-linecap:square;stroke-linejoin:miter;stroke-miterlimit:4;stroke-opacity:1;stroke-dasharray:none"
         d="m 128.5,858.8622 63.00122,0"
         id="path5289"
         inkscape:connector-curvature="0" />
    </g>
    <g
       transform="translate(128,-255.99999)"
       id="layer1-9"
       inkscape:label="Layer 1"
       inkscape:export-filename="/Users/paul/src/OpenRA/mods/cnc/uibits/layer1-9.png"
       inkscape:export-xdpi="180"
       inkscape:export-ydpi="180">
      <rect
         y="940.36218"
         x="16"
         height="96.000008"
         width="96"
         id="rect2987"
         style="fill:#000080;fill-opacity:0.00392157;stroke:#000000;stroke-width:31.99999809;stroke-linecap:square;stroke-miterlimit:4;stroke-dasharray:none" />
      <rect
         y="955.36218"
         x="31.000002"
         height="66"
         width="66"
         id="rect3776-4"
         style="fill:none;stroke:#800000;stroke-width:2;stroke-linecap:square;stroke-miterlimit:4;stroke-dasharray:none" />
    </g>
    <g
       id="g3280"
       transform="translate(0,-256)"
       style="display:none">
      <text
         sodipodi:linespacing="125%"
         id="text3048"
         y="893.86218"
         x="4"
         style="font-size:8px;font-style:normal;font-weight:normal;line-height:125%;letter-spacing:0px;word-spacing:0px;fill:#ffffff;fill-opacity:1;stroke:none;font-family:Sans"
         xml:space="preserve"><tspan
           y="893.86218"
           x="4"
           id="tspan3050"
           sodipodi:role="line">panel-darkred</tspan></text>
      <text
         xml:space="preserve"
         style="font-size:8px;font-style:normal;font-weight:normal;line-height:125%;letter-spacing:0px;word-spacing:0px;fill:#ffffff;fill-opacity:1;stroke:none;font-family:Sans"
         x="74.200432"
         y="893.86218"
         id="text3086"
         sodipodi:linespacing="125%"><tspan
           sodipodi:role="line"
           id="tspan3088"
           x="74.200432"
           y="893.86218">panel-gray</tspan></text>
      <text
         sodipodi:linespacing="125%"
         id="text3090"
         y="831.86218"
         x="74.200432"
         style="font-size:8px;font-style:normal;font-weight:normal;line-height:125%;letter-spacing:0px;word-spacing:0px;fill:#ffffff;fill-opacity:1;stroke:none;font-family:Sans"
         xml:space="preserve"><tspan
           y="831.86218"
           x="74.200432"
           id="tspan3092"
           sodipodi:role="line">panel-black</tspan></text>
      <text
         xml:space="preserve"
         style="font-size:8px;font-style:normal;font-weight:normal;line-height:125%;letter-spacing:0px;word-spacing:0px;fill:#800000;fill-opacity:1;stroke:none;font-family:Sans"
         x="3.2734375"
         y="831.86218"
         id="text3094"
         sodipodi:linespacing="125%"><tspan
           sodipodi:role="line"
           id="tspan3096"
           x="3.2734375"
           y="831.86218">panel-scanline</tspan></text>
      <text
         sodipodi:linespacing="125%"
         id="text3098"
         y="959.86218"
         x="6.2004318"
         style="font-size:8px;font-style:normal;font-weight:normal;line-height:125%;letter-spacing:0px;word-spacing:0px;fill:#ffffff;fill-opacity:1;stroke:none;font-family:Sans"
         xml:space="preserve"><tspan
           y="959.86218"
           x="6.2004318"
           id="tspan3100"
           sodipodi:role="line">button-hover</tspan></text>
      <text
         xml:space="preserve"
         style="font-size:8px;font-style:normal;font-weight:normal;line-height:125%;letter-spacing:0px;word-spacing:0px;fill:#ffffff;fill-opacity:1;stroke:none;font-family:Sans"
         x="18.200432"
         y="1023.8622"
         id="text3102"
         sodipodi:linespacing="125%"><tspan
           sodipodi:role="line"
           id="tspan3104"
           x="18.200432"
           y="1023.8622">button</tspan></text>
      <text
         xml:space="preserve"
         style="font-size:8px;font-style:normal;font-weight:normal;line-height:125%;letter-spacing:0px;word-spacing:0px;fill:#ffffff;fill-opacity:1;stroke:none;font-family:Sans"
         x="64.200432"
         y="959.86218"
         id="text3106"
         sodipodi:linespacing="125%"><tspan
           sodipodi:role="line"
           id="tspan3108"
           x="64.200432"
           y="959.86218">button-disabled</tspan></text>
      <text
         sodipodi:linespacing="125%"
         id="text3110"
         y="1023.8622"
         x="65.500435"
         style="font-size:8px;font-style:normal;font-weight:normal;line-height:125%;letter-spacing:0px;word-spacing:0px;fill:#ffffff;fill-opacity:1;stroke:none;font-family:Sans"
         xml:space="preserve"><tspan
           y="1023.8622"
           x="65.500435"
           id="tspan3112"
           sodipodi:role="line">button-pressed</tspan></text>
      <text
         xml:space="preserve"
         style="font-size:8px;font-style:normal;font-weight:normal;line-height:125%;letter-spacing:0px;word-spacing:0px;fill:#000000;fill-opacity:1;stroke:none;font-family:Sans"
         x="160.6004"
         y="989.86218"
         id="text3159"
         sodipodi:linespacing="125%"><tspan
           sodipodi:role="line"
           id="tspan3161"
           x="160.6004"
           y="989.86218">shellmapborder</tspan></text>
    </g>
    <rect
       style="fill:#000000;fill-opacity:1;stroke:#000000;stroke-width:0.99999988;stroke-linecap:butt;stroke-miterlimit:4;stroke-opacity:1;stroke-dasharray:none;stroke-dashoffset:0"
       id="rect4028"
       width="511"
       height="255"
       x="0.5"
       y="796.86224" />
    <path
       style="fill:#800000;fill-opacity:0.1254902;stroke:#000000;stroke-width:0.99999994;stroke-opacity:1"
       d="m 157.08386,842.10029 74.88793,120.13335 -31.23668,44.68176 -145.771159,0 -31.236678,-44.68176 74.887932,-120.13335 z"
       id="path3068"
       inkscape:connector-curvature="0"
       sodipodi:nodetypes="ccccccc" />
    <path
       style="fill-opacity:1;stroke:#800000;stroke-width:0.99999994;stroke-opacity:0.16470588"
       d="m 90.961979,990.22131 6.512879,-8.48626 8.998442,-7.76671 10.22953,-4.76089 7.15606,0.19577 7.31397,11.54776 3.11492,-1.98649 3.26388,-12.5467 3.92395,-7.13428 6.46556,-6.50956 8.71745,-4.60043 8.49526,9.27034 2.9461,-3.27059 -5.49468,-13.94576 -0.0889,-14.67484 1.47336,-1.41118 11.04088,-0.21404 0.31753,-4.5583 -16.70733,-9.60146 -6.79621,-10.59472 8.04326,-7.96267 -0.21448,-1.9865 -3.86433,2.33423 -19.82227,0 -9.62796,-6.29062 2.0794,-7.35731 -1.98431,-0.52821 -15.25207,14.46706 -9.4449,0.1974 -2.052806,-6.39801 -3.161633,1.395 -1.052724,13.72826 -8.696883,9.22384 -0.07865,3.41422 5.380334,3.31085 1.982215,11.25687 4.530808,9.93255 0,11.25692 -8.495255,9.60138 4.831161,-10.52506 -0.383298,-9.76831 -6.444319,-7.43792 -6.049743,-1.44441 -7.245276,-6.25045 -0.483399,-7.39747 1.857765,-4.98441 -0.54536,-7.32957 4.102273,-13.55083 8.661145,-6.79899 -0.566361,-9.60148 14.441926,-8.60819 17.2737,0.66215 10.26057,-2.7858 11.7098,1.34787 16.82463,12.69483 12.26538,4.03672 10.44313,12.23351 3.79226,8.40739 0.24923,10.82191 6.31279,10.1902 -0.26599,13.36044 -9.04443,19.57074 -3.66705,13.75185 -19.17888,14.39726 -19.40166,7.84903 -9.46208,8.05973 -13.66945,4.12673 -16.70734,0.331 z"
       id="path3093"
       inkscape:connector-curvature="0"
       sodipodi:nodetypes="ccccccccccccccccccccccccccccccccccccccccccccccccccccccccccccccccccccc" />
    <path
       id="path5446"
       style="fill:#000000;fill-opacity:1;stroke:#800000;stroke-width:0.99999994;stroke-opacity:0.24313725"
       d="m 157.08386,842.10029 74.88793,120.13335 -31.23668,44.68176 -145.771159,0 -31.236678,-44.68176 74.887932,-120.13335 z m 7.60893,-14.04674 -73.686519,0 -83.2978069,134.18009 40.0470229,58.72856 160.188093,0 40.04702,-58.72856 z"
       inkscape:connector-curvature="0" />
    <path
       id="path6111"
       style="fill:#c8b98d;fill-opacity:0.08860761000000000;fill-rule:evenodd;stroke:#807c30;stroke-width:0.99999994000000003px;stroke-linecap:butt;stroke-linejoin:miter;stroke-opacity:0.16877638"
       d="m 350.91976,886.3592 -16.53766,0.78287 -30.6411,-6.78638 c 2.17824,-4.04198 4.61773,-7.85508 7.3136,-11.40463 z m 23.99227,-12.26492 -9.55349,0.28995 -42.3932,-18.5176 c 1.82739,-1.65213 3.71453,-3.22311 5.58994,-4.76587 z m -32.9261,131.22512 C 304.77282,985.96029 286.40279,944.57782 294.49125,905.31013 l 56.10283,38.08292 11.29046,24.64584 10.71149,5.79899 2.60549,11.88796 -3.18449,5.21904 6.07949,16.81722 0.28949,-14.49759 20.26495,0.28998 14.47498,13.04781 -12.44849,-21.16643 -15.05395,-0.28998 -9.55349,-38.85343 44.58291,10.43826 5.21098,14.49756 -15.34347,2.89957 21.42296,0.28998 13.60648,-19.13682 -10.42199,-20.00714 -34.16091,-20.29653 43.71439,-20.00661 -103.98118,-51.5943 c 25.75821,-13.99095 57.72797,-15.29758 85.6659,-0.76362 44.65965,23.23301 62.2154,78.21842 39.16884,123.35181 -23.4335,45.18758 -78.6889,62.69188 -123.54898,39.35478 z m -4.69886,9.0606 c -49.85632,-25.9364 -69.27996,-87.44216 -43.38392,-137.37623 25.89604,-49.93408 87.30547,-69.38799 137.1618,-43.45159 49.63361,25.82056 69.14462,86.92993 43.53123,137.09005 -26.04336,50.22037 -87.45278,69.67407 -137.30911,43.73777 z"
       inkscape:connector-curvature="0"
       sodipodi:nodetypes="ccccccccccsccccccccccccccccccccccscsssscs" />
    <g
       transform="translate(128,-382.30568)"
       id="layer1-36"
       inkscape:label="Layer 1">
      <path
         sodipodi:open="true"
         sodipodi:end="9.424778"
         sodipodi:start="3.1499891"
         transform="matrix(1.9954016,0,0,1.4804587,-42.183894,874.77148)"
         d="M 22.143954,94.833844 C 22.288037,86.254008 36.315502,79.357078 53.475173,79.42912 70.634844,79.501162 84.428703,86.514895 84.28462,95.09473 84.140536,103.67457 70.113071,110.5715 52.9534,110.49945 35.89552,110.42784 22.142858,103.49353 22.142859,94.964286"
         sodipodi:ry="15.535714"
         sodipodi:rx="31.071428"
         sodipodi:cy="94.964287"
         sodipodi:cx="53.214287"
         id="path2985"
         style="fill:none;stroke:#800000;stroke-width:1.16363478;stroke-linecap:round;stroke-miterlimit:4;stroke-opacity:1;stroke-dasharray:none"
         sodipodi:type="arc" />
      <path
         sodipodi:nodetypes="cccccccc"
         inkscape:connector-curvature="0"
         id="rect4963"
         d="m 55.5,936.36218 17,0 0,40 13.5,0 -22,33.37502 -21.894,-33.37502 13.394,0 z"
         style="fill:#2b0000;fill-opacity:0.87843137;stroke:#800000;stroke-width:2;stroke-linecap:round;stroke-miterlimit:4;stroke-opacity:1" />
    </g>
    <rect
       style="fill:#ffffff;fill-opacity:1;stroke:none"
       id="rect3316"
       width="5"
       height="16"
       x="257"
       y="540.46014" />
    <rect
       style="fill:#ffffff;fill-opacity:1;stroke:none"
       id="rect4100"
       width="5"
       height="16"
       x="266"
       y="540.36218" />
    <rect
       y="540.36218"
       x="272"
       height="16"
       width="16"
       id="rect4110"
       style="fill:#ffffff;fill-opacity:1;stroke:none" />
    <path
       style="fill:#ffffff;fill-opacity:1;stroke:none"
       d="m 288,540.36218 16,8 0,0 -16,8 z"
       id="rect4114"
       inkscape:connector-curvature="0"
       sodipodi:nodetypes="ccccc" />
    <path
       sodipodi:nodetypes="ccccc"
       inkscape:connector-curvature="0"
       id="path4119"
       d="m 256,556.36218 8,8 0,0 -8,8 z"
       style="fill:#ffffff;fill-opacity:1;stroke:none" />
    <path
       style="fill:#ffffff;fill-opacity:1;stroke:none"
       d="m 264,556.36218 8,8 0,0 -8,8 z"
       id="path4121"
       inkscape:connector-curvature="0"
       sodipodi:nodetypes="ccccc" />
    <path
       style="fill:#ffffff;fill-opacity:1;stroke:none"
       d="m 288,556.36218 -8,8 0,0 8,8 z"
       id="path4131"
       inkscape:connector-curvature="0"
       sodipodi:nodetypes="ccccc" />
    <path
       sodipodi:nodetypes="ccccc"
       inkscape:connector-curvature="0"
       id="path4133"
       d="m 280,556.36218 -8,8 0,0 8,8 z"
       style="fill:#ffffff;fill-opacity:1;stroke:none" />
    <path
       style="fill:#2b0000;fill-opacity:1;stroke:#3f0000;stroke-width:0.99999994000000003;stroke-linecap:butt;stroke-miterlimit:4;stroke-opacity:1;stroke-dasharray:none;stroke-dashoffset:0"
       d="M 264 32.5 C 259.85786 32.499386 256.50061 35.857864 256.5 40 C 256.49939 44.142136 259.85786 47.499386 264 47.5 C 268.14214 47.500614 271.49939 44.142136 271.5 40 C 271.5 35.858298 268.1417 32.500614 264 32.5 z M 264 34.5 C 267.03725 34.50045 269.5 36.962752 269.5 40 C 269.49955 43.037566 267.03757 45.50045 264 45.5 C 260.96243 45.49955 258.49955 43.037566 258.5 40 C 258.50045 36.962434 260.96243 34.49955 264 34.5 z "
       transform="translate(0,540.3622)"
       id="path4279" />
    <path
       sodipodi:open="true"
       sodipodi:end="6.2831853"
       sodipodi:start="0.00014815468"
       transform="matrix(0.90203431,0,0,0.77317229,22.750015,541.2837)"
       d="m 290.17741,50.543926 c -4e-4,3.214396 -2.23426,5.819792 -4.98946,5.819316 -2.75519,-4.77e-4 -4.98839,-2.606645 -4.98798,-5.82104 4e-4,-3.214395 2.23426,-5.819792 4.98946,-5.819315 2.75491,4.76e-4 4.98798,2.606119 4.98798,5.820177"
       sodipodi:ry="5.8201776"
       sodipodi:rx="4.9887238"
       sodipodi:cy="50.543064"
       sodipodi:cx="285.18869"
       id="path4289"
       style="fill:#000000;fill-opacity:0.75294119;stroke:#800000;stroke-width:1.19743048999999990;stroke-linecap:butt;stroke-miterlimit:4;stroke-opacity:1;stroke-dasharray:none;stroke-dashoffset:0"
       sodipodi:type="arc" />
    <path
       style="fill:#ffffff;fill-opacity:1;stroke:none"
       d="m 301.46818,557.86741 2.54657,2.47487 -10.5441,10.51992 -5.47065,-5.52386 2.49822,-2.51412 2.74107,3.21472 z"
       id="rect4408"
       inkscape:connector-curvature="0"
       sodipodi:nodetypes="ccccccc" />
    <path
       sodipodi:nodetypes="ccccccc"
       inkscape:connector-curvature="0"
       id="path4413"
       d="m 301.46818,573.86741 2.54657,2.47487 -10.5441,10.51992 -5.47065,-5.52386 2.49822,-2.51412 2.74107,3.21472 z"
       style="fill:#808080;fill-opacity:1;stroke:none" />
    <path
       sodipodi:nodetypes="ccccc"
       inkscape:connector-curvature="0"
       id="path4415"
       d="m 306.5,545.3622 5.5,6 0,0 5.5,-6 z"
       style="fill:#ffffff;fill-opacity:1;stroke:none" />
    <path
       style="fill:#ffffff;fill-opacity:1;stroke:none"
       d="m 306.5,567.3622 5.5,-6 0,0 5.5,6 z"
       id="path4421"
       inkscape:connector-curvature="0"
       sodipodi:nodetypes="ccccc" />
    <path
       sodipodi:nodetypes="ccccc"
       inkscape:connector-curvature="0"
       id="path4425"
       d="m 306.5,577.3622 5.5,6 0,0 5.5,-6 z"
       style="fill:#808080;fill-opacity:1;stroke:none" />
    <path
       sodipodi:nodetypes="ccccc"
       inkscape:connector-curvature="0"
       id="path4429"
       d="m 306.5,599.3622 5.5,-6 0,0 5.5,6 z"
       style="fill:#808080;fill-opacity:1;stroke:none" />
    <path
       style="fill:#c0c0c0;fill-opacity:0.75294118;stroke:#c0c0c0;stroke-width:1;stroke-linecap:round;stroke-linejoin:miter;stroke-miterlimit:4;stroke-opacity:1;stroke-dashoffset:0"
       d="m 264.50006,615.03508 23,0 6.90794,11.43408 -12.90794,-1.6e-4 0,4.26108 15.51844,0 6.9615,11.291 -22.21674,0 -0.0199,4.407 24.91064,0 6.82806,11.357 -48.98206,-2e-5 z"
       id="rect3142"
       inkscape:connector-curvature="0"
       sodipodi:nodetypes="ccccccccccccc" />
    <path
       style="fill:#c0c0c0;fill-opacity:0.75294118;stroke:#c0c0c0;stroke-width:1;stroke-linecap:round;stroke-linejoin:miter;stroke-miterlimit:4;stroke-opacity:1;stroke-dashoffset:0"
       d="m 293.20006,615.03508 13.3,0 8.93203,15.31571 3.91797,6.68429 3.83956,-6.55052 9.01044,-15.44948 13.3,0 -26.15,42.82712 z"
       id="path3931"
       inkscape:connector-curvature="0"
       sodipodi:nodetypes="ccccccccc" />
    <path
       style="fill:#c0c0c0;fill-opacity:0.75294118;stroke:#c0c0c0;stroke-width:1;stroke-linecap:round;stroke-linejoin:miter;stroke-miterlimit:4;stroke-opacity:1;stroke-dashoffset:0"
       d="m 351.34381,615.59708 -26.15625,42.2505 13.3125,0 6.28125,-10.71875 6.5625,10.31825 6.53125,-10.3495 6.3125,10.75 13.3125,0 z m 0,20.34425 6.5,11.09375 -13,0 z"
       id="path3963"
       inkscape:connector-curvature="0"
       sodipodi:nodetypes="ccccccccccccc" />
    <path
       sodipodi:type="arc"
       style="fill:#ff0000;fill-opacity:1;stroke:#800000;stroke-width:1.19743048999999990;stroke-linecap:butt;stroke-miterlimit:4;stroke-opacity:1;stroke-dasharray:none;stroke-dashoffset:0"
       id="path3991"
       sodipodi:cx="285.18869"
       sodipodi:cy="50.543064"
       sodipodi:rx="4.9887238"
       sodipodi:ry="5.8201776"
       d="m 290.17741,50.543926 a 4.9887238,5.8201776 0 1 1 0,-8.62e-4"
       transform="matrix(0.90203431,0,0,0.77317229,6.750015,557.2837)"
       sodipodi:start="0.00014815468"
       sodipodi:end="6.2831853"
       sodipodi:open="true" />
    <rect
       inkscape:export-ydpi="90"
       inkscape:export-xdpi="90"
       inkscape:export-filename="/Users/paul/src/OpenRA/mods/cnc/uibits/rect3776.png"
       y="540.86218"
       x="336.5"
       height="34"
       width="15"
       id="rect3999"
       style="fill:#0f0000;fill-opacity:0.87843138;stroke:#800000;stroke-width:0.99999987999999995;stroke-linecap:square;stroke-miterlimit:4;stroke-dasharray:none" />
    <rect
       style="fill:#560000;fill-opacity:0.87843137;stroke:#c00000;stroke-width:0.99999988;stroke-linecap:square;stroke-miterlimit:4;stroke-opacity:1;stroke-dasharray:none"
       id="rect4001"
       width="15"
       height="34"
       x="320.5"
       y="540.86218"
       inkscape:export-filename="/Users/paul/src/OpenRA/mods/cnc/uibits/rect3776.png"
       inkscape:export-xdpi="90"
       inkscape:export-ydpi="90"
       inkscape:transform-center-x="1.4142136"
       inkscape:transform-center-y="40.134013" />
  </g>
</svg>
