<?xml version="1.0" encoding="UTF-8" standalone="no"?>
<!-- Created with Inkscape (http://www.inkscape.org/) -->

<svg
   xmlns:dc="http://purl.org/dc/elements/1.1/"
   xmlns:cc="http://creativecommons.org/ns#"
   xmlns:rdf="http://www.w3.org/1999/02/22-rdf-syntax-ns#"
   xmlns:svg="http://www.w3.org/2000/svg"
   xmlns="http://www.w3.org/2000/svg"
   xmlns:xlink="http://www.w3.org/1999/xlink"
   xmlns:sodipodi="http://sodipodi.sourceforge.net/DTD/sodipodi-0.dtd"
   xmlns:inkscape="http://www.inkscape.org/namespaces/inkscape"
   width="96"
   height="96"
   id="svg4130"
   version="1.1"
   inkscape:version="0.48.2 r9819"
   sodipodi:docname="logo.svg"
   inkscape:export-filename="/Users/paul/src/OpenRA/mods/cnc/logo.png"
   inkscape:export-xdpi="90"
   inkscape:export-ydpi="90">
  <defs
     id="defs4132">
    <linearGradient
       id="linearGradient3822">
      <stop
         style="stop-color:#6c4500;stop-opacity:0;"
         offset="0"
         id="stop3824" />
      <stop
         id="stop3826"
         offset="0.53448278"
         style="stop-color:#c57d00;stop-opacity:0.49803922;" />
      <stop
         style="stop-color:#ffae22;stop-opacity:1;"
         offset="1"
         id="stop3828" />
    </linearGradient>
    <linearGradient
       id="linearGradient3814">
      <stop
         id="stop3816"
         offset="0"
         style="stop-color:#dd8d00;stop-opacity:0;" />
      <stop
         style="stop-color:#f19900;stop-opacity:0.49803922;"
         offset="0.53448278"
         id="stop3818" />
      <stop
         id="stop3820"
         offset="1"
         style="stop-color:#583800;stop-opacity:1;" />
    </linearGradient>
    <linearGradient
       id="linearGradient3782">
      <stop
         style="stop-color:#dd8d00;stop-opacity:0;"
         offset="0"
         id="stop3784" />
      <stop
         id="stop3796"
         offset="0.53448278"
         style="stop-color:#f19900;stop-opacity:0.49803922;" />
      <stop
         style="stop-color:#8d5900;stop-opacity:1;"
         offset="1"
         id="stop3786" />
    </linearGradient>
    <linearGradient
       id="linearGradient6616">
      <stop
         style="stop-color:#000000;stop-opacity:1;"
         offset="0"
         id="stop6618" />
      <stop
         style="stop-color:#000000;stop-opacity:1;"
         offset="1"
         id="stop6620" />
    </linearGradient>
    <linearGradient
       id="linearGradient6596">
      <stop
         style="stop-color:#ffffff;stop-opacity:0.98425198;"
         offset="0"
         id="stop6598" />
      <stop
         style="stop-color:#000000;stop-opacity:0.39370078;"
         offset="1"
         id="stop6600" />
    </linearGradient>
    <linearGradient
       id="linearGradient6572">
      <stop
         id="stop6574"
         offset="0"
         style="stop-color:#ffffff;stop-opacity:0;" />
      <stop
         id="stop6576"
         offset="1"
         style="stop-color:#000000;stop-opacity:0;" />
    </linearGradient>
    <linearGradient
       id="linearGradient5110">
      <stop
         style="stop-color:#bd6c00;stop-opacity:1;"
         offset="0"
         id="stop5112" />
      <stop
         style="stop-color:#ffa32e;stop-opacity:1;"
         offset="1"
         id="stop5114" />
    </linearGradient>
    <linearGradient
       id="linearGradient5084">
      <stop
         style="stop-color:#000000;stop-opacity:0.64566928;"
         offset="0"
         id="stop5086" />
      <stop
         style="stop-color:#808080;stop-opacity:0;"
         offset="1"
         id="stop5088" />
    </linearGradient>
    <linearGradient
       inkscape:collect="always"
       xlink:href="#linearGradient5084"
       id="linearGradient5098"
       gradientUnits="userSpaceOnUse"
       x1="71.720825"
       y1="459.90771"
       x2="305.06607"
       y2="459.90771" />
    <radialGradient
       inkscape:collect="always"
       xlink:href="#linearGradient3782"
       id="radialGradient3792"
       cx="84.734207"
       cy="567.22565"
       fx="84.734207"
       fy="567.22565"
       r="21.637486"
       gradientTransform="matrix(1,0,0,0.99974406,0,0.14517841)"
       gradientUnits="userSpaceOnUse" />
    <radialGradient
       inkscape:collect="always"
       xlink:href="#linearGradient3822"
       id="radialGradient3812"
       cx="84.577248"
       cy="567.14465"
       fx="84.577248"
       fy="567.14465"
       r="8.3748941"
       gradientTransform="matrix(1,0,0,0.99907109,0,0.52682475)"
       gradientUnits="userSpaceOnUse" />
    <radialGradient
       inkscape:collect="always"
       xlink:href="#linearGradient3782"
       id="radialGradient3034"
       gradientUnits="userSpaceOnUse"
       gradientTransform="matrix(1,0,0,0.99974406,0,0.14517841)"
       cx="84.734207"
       cy="567.22565"
       fx="84.734207"
       fy="567.22565"
       r="21.637486" />
    <linearGradient
       inkscape:collect="always"
       xlink:href="#linearGradient5084"
       id="linearGradient3036"
       gradientUnits="userSpaceOnUse"
       x1="71.720825"
       y1="459.90771"
       x2="305.06607"
       y2="459.90771" />
  </defs>
  <sodipodi:namedview
     id="base"
     pagecolor="#ffffff"
     bordercolor="#666666"
     borderopacity="1.0"
     inkscape:pageopacity="0.0"
     inkscape:pageshadow="2"
     inkscape:zoom="2.3372088"
     inkscape:cx="71.042325"
     inkscape:cy="115.94373"
     inkscape:document-units="px"
     inkscape:current-layer="layer1"
     showgrid="false"
     inkscape:window-width="1071"
     inkscape:window-height="856"
     inkscape:window-x="561"
     inkscape:window-y="22"
     inkscape:window-maximized="0"
     showguides="true"
     inkscape:guide-bbox="true"
     fit-margin-top="14"
     fit-margin-left="14"
     fit-margin-right="14"
     fit-margin-bottom="14" />
  <metadata
     id="metadata4135">
    <rdf:RDF>
      <cc:Work
         rdf:about="">
        <dc:format>image/svg+xml</dc:format>
        <dc:type
           rdf:resource="http://purl.org/dc/dcmitype/StillImage" />
        <dc:title></dc:title>
      </cc:Work>
    </rdf:RDF>
  </metadata>
  <g
     inkscape:label="Layer 1"
     inkscape:groupmode="layer"
     id="layer1"
     transform="translate(-21.534337,-535.20401)">
    <g
       id="g3022"
       transform="matrix(0.83934059,0,0,0.8393405,-2.2578941,107.12651)"
       inkscape:export-filename="/Users/paul/src/OpenRA/mods/cnc/g3022.png"
       inkscape:export-xdpi="90"
       inkscape:export-ydpi="90">
      <path
         transform="translate(21.534337,503.20399)"
         id="path6583"
         d="M 64,6.8125 C 32.40886,6.8125 6.8125,32.408848 6.8125,64 6.8125,95.591152 32.40886,121.1875 64,121.1875 95.59114,121.1875 121.1875,95.591152 121.1875,64 121.1875,32.408848 95.59114,6.8125 64,6.8125 z m 0,5.5 c 28.552445,0 51.6875,23.135044 51.6875,51.6875 0,28.552456 -23.135055,51.6875 -51.6875,51.6875 C 35.447555,115.6875 12.3125,92.552456 12.3125,64 12.3125,35.447544 35.447555,12.3125 64,12.3125 z"
         style="fill:#6e6e6e;fill-opacity:1;stroke:none"
         inkscape:connector-curvature="0" />
      <path
         inkscape:export-ydpi="90"
         inkscape:export-xdpi="90"
         inkscape:export-filename="/Users/paul/Desktop/logo.png"
         sodipodi:type="arc"
         style="fill:#808080;fill-opacity:1;stroke:none"
         id="path5072"
         sodipodi:cx="188.39345"
         sodipodi:cy="459.90771"
         sodipodi:rx="116.67262"
         sodipodi:ry="116.67262"
         d="m 305.06607,459.90771 c 0,64.43652 -52.23611,116.67263 -116.67262,116.67263 -64.43651,0 -116.672625,-52.23611 -116.672625,-116.67263 0,-64.43651 52.236115,-116.67262 116.672625,-116.67262 64.43651,0 116.67262,52.23611 116.67262,116.67262 z"
         transform="matrix(0.47140451,0,0,0.4714047,-3.2751835,350.40132)" />
      <path
         inkscape:connector-curvature="0"
         style="fill:#6e6e6e;fill-opacity:1;stroke:none"
         d="m 85.534337,520.46025 c -25.564062,0 -46.27705,20.92185 -46.27705,46.74374 0,25.82189 20.712988,46.74374 46.27705,46.74374 25.564053,0 46.277053,-20.92185 46.277053,-46.74374 0,-25.82189 -20.713,-46.74374 -46.277053,-46.74374 z m 0,4.49557 c 23.105093,0 41.826353,18.91005 41.826353,42.24817 0,23.33812 -18.72126,42.24817 -41.826353,42.24817 -23.1051,0 -41.826361,-18.91005 -41.826361,-42.24817 0,-23.33812 18.721261,-42.24817 41.826361,-42.24817 z"
         id="path3010" />
      <path
         inkscape:export-ydpi="90"
         inkscape:export-xdpi="90"
         inkscape:export-filename="/Users/paul/Desktop/logo.png"
         transform="matrix(0.3798902,0,0,0.37989036,13.965509,392.48946)"
         d="m 305.06607,459.90771 c 0,64.43652 -52.23611,116.67263 -116.67262,116.67263 -64.43651,0 -116.672625,-52.23611 -116.672625,-116.67263 0,-64.43651 52.236115,-116.67262 116.672625,-116.67262 64.43651,0 116.67262,52.23611 116.67262,116.67262 z"
         sodipodi:ry="116.67262"
         sodipodi:rx="116.67262"
         sodipodi:cy="459.90771"
         sodipodi:cx="188.39345"
         id="path5076"
         style="fill:#000000;fill-opacity:1;stroke:none"
         sodipodi:type="arc" />
      <path
         inkscape:export-ydpi="90"
         inkscape:export-xdpi="90"
         inkscape:export-filename="/Users/paul/Desktop/logo.png"
         sodipodi:nodetypes="scccscccscccscccs"
         inkscape:connector-curvature="0"
         id="path5063"
         d="m 84.61767,546.12645 c -4.647961,0 -8.949813,1.50102 -12.441972,4.04004 3.382281,3.34321 4.069402,6.41938 4.72371,9.30793 -3.513263,-0.93044 -6.569652,-2.61856 -9.052317,-4.80174 -2.648436,3.53517 -4.217617,7.91795 -4.217617,12.67506 0,4.64796 1.501008,8.9498 4.040031,12.44198 3.343203,-3.3823 6.419382,-4.32055 9.307924,-4.97487 -0.938031,3.53703 -2.622425,6.81446 -4.801731,9.29237 3.535163,2.64845 7.917952,4.21762 12.675051,4.21762 4.647959,0 8.949814,-1.50102 12.441971,-4.04004 -3.38228,-3.3432 -4.383329,-6.7222 -5.037635,-9.61075 3.470275,0.90031 6.888845,2.93699 9.366235,5.11567 2.64845,-3.53517 4.21762,-7.91796 4.21762,-12.67507 0,-4.64795 -1.501,-8.9498 -4.04004,-12.44197 -3.34319,3.38228 -6.73329,4.19498 -9.621835,4.84929 0.93835,-3.54461 2.932955,-6.696 5.115655,-9.17789 -3.535162,-2.64845 -7.917951,-4.21763 -12.67505,-4.21763 z"
         style="fill:#ffaf27;fill-opacity:1;stroke:none" />
      <path
         inkscape:export-ydpi="90"
         inkscape:export-xdpi="90"
         inkscape:export-filename="/Users/paul/Desktop/logo.png"
         inkscape:transform-center-x="6.4579251"
         sodipodi:nodetypes="sssccsssccs"
         inkscape:connector-curvature="0"
         id="path4264"
         d="m 85.538886,537.06965 c -16.6442,0 -30.144866,13.4896 -30.144866,30.1338 0,16.6442 13.500666,30.13378 30.144866,30.13378 5.675234,0 10.984394,-1.56834 15.516394,-4.29532 l -2.83024,-4.78366 c -3.703345,2.23673 -8.043553,3.51838 -12.686154,3.51838 -13.572947,0 -24.584269,-11.00024 -24.584269,-24.57318 0,-13.57295 11.011322,-24.5732 24.584269,-24.5732 4.633754,0 8.965238,1.27845 12.663954,3.5073 l 2.96343,-4.70598 c -4.55612,-2.76816 -9.90594,-4.36192 -15.627384,-4.36192 z"
         style="fill:#ff0000;fill-opacity:1;stroke:#ffffff;stroke-width:1.0655036;stroke-miterlimit:4;stroke-opacity:1;stroke-dasharray:none" />
      <path
         style="fill:url(#radialGradient3034);fill-opacity:1;stroke:#a0a0a0;stroke-width:1.0655036;stroke-linejoin:round;stroke-miterlimit:4;stroke-opacity:1;stroke-dasharray:none"
         d="m 84.61767,546.12645 c -4.647961,0 -8.949813,1.50102 -12.441972,4.04004 3.382281,3.34321 4.069402,6.41938 4.72371,9.30793 -3.513263,-0.93044 -6.569652,-2.61856 -9.052317,-4.80174 -2.648436,3.53517 -4.217617,7.91795 -4.217617,12.67506 0,4.64796 1.501008,8.9498 4.040031,12.44198 3.343203,-3.3823 6.419382,-4.32055 9.307924,-4.97487 -0.938031,3.53703 -2.622425,6.81446 -4.801731,9.29237 3.535163,2.64845 7.917952,4.21762 12.675051,4.21762 4.647959,0 8.949814,-1.50102 12.441971,-4.04004 -3.38228,-3.3432 -4.383329,-6.7222 -5.037635,-9.61075 3.470275,0.90031 6.888845,2.93699 9.366235,5.11567 2.64845,-3.53517 4.21762,-7.91796 4.21762,-12.67507 0,-4.64795 -1.501,-8.9498 -4.04004,-12.44197 -3.34319,3.38228 -6.73329,4.19498 -9.621835,4.84929 0.93835,-3.54461 2.932955,-6.696 5.115655,-9.17789 -3.535162,-2.64845 -7.917951,-4.21763 -12.67505,-4.21763 z"
         id="path3780"
         inkscape:connector-curvature="0"
         sodipodi:nodetypes="scccscccscccscccs"
         inkscape:export-filename="/Users/paul/Desktop/logo.png"
         inkscape:export-xdpi="90"
         inkscape:export-ydpi="90" />
      <path
         inkscape:export-ydpi="90"
         inkscape:export-xdpi="90"
         inkscape:export-filename="/Users/paul/Desktop/logo.png"
         sodipodi:nodetypes="ccccc"
         inkscape:connector-curvature="0"
         id="path6630"
         d="m 76.745851,559.32102 0.07958,15.64723 15.583209,-0.14361 -0.07958,-15.45512 z"
         style="fill:none;stroke:#a0a0a0;stroke-width:1.08700001;stroke-linejoin:round;stroke-miterlimit:4;stroke-opacity:1;stroke-dasharray:none" />
      <path
         inkscape:export-ydpi="90"
         inkscape:export-xdpi="90"
         inkscape:export-filename="/Users/paul/Desktop/logo.png"
         inkscape:connector-curvature="0"
         id="path4796"
         d="m 86.038341,527.29147 c -22.046179,0 -39.934178,17.8658 -39.934178,39.91198 0,22.04618 17.887999,39.91199 39.934178,39.91199 7.459453,0 14.438709,-2.04433 20.411049,-5.60499 l -3.20762,-5.4163 c -5.08086,3.06872 -11.03371,4.82806 -17.403212,4.82806 -18.621663,0 -33.72984,-15.09709 -33.72984,-33.71876 0,-18.62167 15.108177,-33.71875 33.72984,-33.71875 6.357363,0 12.295402,1.75905 17.369932,4.81695 l 3.363,-5.33862 c -6.00018,-3.60745 -13.021035,-5.67156 -20.533149,-5.67156 z"
         style="fill:#ff0000;fill-opacity:1;stroke:#ffffff;stroke-width:1.0655036;stroke-miterlimit:4;stroke-opacity:1;stroke-dasharray:none" />
      <path
         transform="matrix(-0.25240968,-0.42008026,0.4200804,-0.25240977,-60.11205,762.43008)"
         d="m 305.06607,459.90771 c 0,64.43652 -52.23611,116.67263 -116.67262,116.67263 -64.43651,0 -116.672625,-52.23611 -116.672625,-116.67263 0,-64.43651 52.236115,-116.67262 116.672625,-116.67262 64.43651,0 116.67262,52.23611 116.67262,116.67262 z"
         sodipodi:ry="116.67262"
         sodipodi:rx="116.67262"
         sodipodi:cy="459.90771"
         sodipodi:cx="188.39345"
         id="path5082"
         style="opacity:0.9;fill:url(#linearGradient3036);fill-opacity:1;stroke:none"
         sodipodi:type="arc"
         inkscape:export-filename="/Users/paul/Desktop/logo.png"
         inkscape:export-xdpi="90"
         inkscape:export-ydpi="90" />
    </g>
  </g>
</svg>
